<mxfile host="app.diagrams.net" modified="2024-12-18T23:42:47.039Z" agent="Mozilla/5.0 (Windows NT 10.0; Win64; x64) AppleWebKit/537.36 (KHTML, like Gecko) Chrome/131.0.0.0 Safari/537.36" version="21.2.3" etag="URCe55N68IJBPEIG9AZV" type="github">
  <diagram name="Page-1" id="lYKA7R9JJxsAuhz7X1ks">
    <mxGraphModel>
      <root>
        <mxCell id="0" />
        <mxCell id="1" parent="0" />
      </root>
    </mxGraphModel>
  </diagram>
</mxfile>
